<svg xmlns="http://www.w3.org/2000/svg">
    <symbol viewBox="0 0 20 18" id="button__catalog-icon" fill="none">
        <path d="M2.5 5.25H17.5C18.8806 5.25 20 4.13062 20 2.75C20 1.36938 18.8806 0.25 17.5 0.25H2.5C1.11938 0.25 0 1.36938 0 2.75C0 4.13062 1.11938 5.25 2.5 5.25ZM2.5 1.5H17.5C18.1906 1.5 18.75 2.05938 18.75 2.75C18.75 3.44062 18.1906 4 17.5 4H2.5C1.80938 4 1.25 3.44062 1.25 2.75C1.25 2.05938 1.80938 1.5 2.5 1.5ZM17.5 12.75H2.5C1.11938 12.75 0 13.8694 0 15.25C0 16.6306 1.11938 17.75 2.5 17.75H17.5C18.8806 17.75 20 16.6306 20 15.25C20 13.8694 18.8806 12.75 17.5 12.75ZM17.5 16.5H2.5C1.80938 16.5 1.25 15.9406 1.25 15.25C1.25 14.5594 1.80938 14 2.5 14H17.5C18.1906 14 18.75 14.5594 18.75 15.25C18.75 15.9406 18.1906 16.5 17.5 16.5ZM17.5 6.5H2.5C1.11938 6.5 0 7.61938 0 9C0 10.3806 1.11938 11.5 2.5 11.5H17.5C18.8806 11.5 20 10.3806 20 9C20 7.61938 18.8806 6.5 17.5 6.5ZM17.5 10.25H2.5C1.80938 10.25 1.25 9.69062 1.25 9C1.25 8.31 1.80938 7.75 2.5 7.75H17.5C18.1906 7.75 18.75 8.30938 18.75 9C18.75 9.69062 18.1906 10.25 17.5 10.25Z" fill="white"/>
    </symbol>
</svg>