<svg xmlns="http://www.w3.org/2000/svg">
    <symbol viewBox="0 0 20 18" id="catalog-icon" fill="none">
        <path d="M2.5 5.25H17.5C18.8806 5.25 20 4.13062 20 2.75C20 1.36938 18.8806 0.25 17.5 0.25H2.5C1.11938 0.25 0 1.36938 0 2.75C0 4.13062 1.11938 5.25 2.5 5.25ZM2.5 1.5H17.5C18.1906 1.5 18.75 2.05938 18.75 2.75C18.75 3.44062 18.1906 4 17.5 4H2.5C1.80938 4 1.25 3.44062 1.25 2.75C1.25 2.05938 1.80938 1.5 2.5 1.5ZM17.5 12.75H2.5C1.11938 12.75 0 13.8694 0 15.25C0 16.6306 1.11938 17.75 2.5 17.75H17.5C18.8806 17.75 20 16.6306 20 15.25C20 13.8694 18.8806 12.75 17.5 12.75ZM17.5 16.5H2.5C1.80938 16.5 1.25 15.9406 1.25 15.25C1.25 14.5594 1.80938 14 2.5 14H17.5C18.1906 14 18.75 14.5594 18.75 15.25C18.75 15.9406 18.1906 16.5 17.5 16.5ZM17.5 6.5H2.5C1.11938 6.5 0 7.61938 0 9C0 10.3806 1.11938 11.5 2.5 11.5H17.5C18.8806 11.5 20 10.3806 20 9C20 7.61938 18.8806 6.5 17.5 6.5ZM17.5 10.25H2.5C1.80938 10.25 1.25 9.69062 1.25 9C1.25 8.31 1.80938 7.75 2.5 7.75H17.5C18.1906 7.75 18.75 8.30938 18.75 9C18.75 9.69062 18.1906 10.25 17.5 10.25Z" fill="white"/>
    </symbol>
    <symbol id="catalog-icon-close" viewBox="0 0 20 20" fill="none">
        <path d="M1.03283 20C0.769377 20 0.505928 19.8998 0.305767 19.6982C-0.0960628 19.2963 -0.0960628 18.6449 0.305767 18.2431L18.2474 0.301372C18.6493 -0.100457 19.3007 -0.100457 19.7026 0.301372C20.1044 0.703201 20.1044 1.35467 19.7026 1.75675L1.76114 19.6982C1.55947 19.8986 1.29602 20 1.03283 20Z" fill="white"/>
        <path d="M18.9758 20C18.7123 20 18.4491 19.8998 18.2487 19.6982L0.305767 1.75675C-0.0960628 1.35467 -0.0960628 0.703201 0.305767 0.301372C0.707596 -0.100457 1.35906 -0.100457 1.76114 0.301372L19.7026 18.2431C20.1044 18.6449 20.1044 19.2963 19.7026 19.6982C19.5009 19.8986 19.2377 20 18.9758 20Z" fill="white"/>
    </symbol>
    <symbol viewBox="0 0 20 20" id="catalog-search" fill="none">
        <path d="M8.24515 16.4718C3.70387 16.4718 0.00927734 12.7772 0.00927734 8.23588C0.00927734 3.69459 3.70387 0 8.24515 0C12.7864 0 16.481 3.69459 16.481 8.23588C16.481 12.7772 12.7864 16.4718 8.24515 16.4718ZM8.24515 1.5613C4.56477 1.5613 1.57058 4.5555 1.57058 8.23588C1.57058 11.9163 4.56477 14.9105 8.24515 14.9105C11.9255 14.9105 14.9197 11.9163 14.9197 8.23588C14.9197 4.5555 11.9255 1.5613 8.24515 1.5613Z" fill="white"/>
        <path d="M19.2116 20.0001C19.0118 20.0001 18.812 19.9239 18.6595 19.7714L15.1661 16.278C14.8613 15.9731 14.8613 15.4788 15.1661 15.174C15.471 14.8691 15.9653 14.8691 16.2702 15.174L19.7636 18.6674C20.0684 18.9723 20.0684 19.4666 19.7636 19.7714C19.6112 19.9238 19.4114 20.0001 19.2116 20.0001Z" fill="white"/>
    </symbol>
    <symbol viewBox="0 0 63.8 63.8" id="phone-icon">
        <path class="st0" d="M0,13.7c0.2-0.9,0.3-1.9,0.5-2.8c0.3-1.3,1-2.4,2-3.4c1.9-1.9,3.8-3.7,5.6-5.6c2.6-2.7,6.6-2.3,9,0  c2.9,2.8,5.7,5.7,8.6,8.6c2.8,2.8,2.5,7.2-0.6,9.3c-0.6,0.4-1.3,0.7-2,1c-2.2,1-3.7,3.2-3.5,5.6c0.1,1.3,0.5,2.6,1.1,3.7  c3.1,6.1,7.8,10.7,14.1,13.5c2.2,1,4.3,0.8,6.3-0.5c1.1-0.7,1.7-1.8,2.2-3c1.5-3.8,6.2-5.2,9.2-2.4c3.4,3.1,6.6,6.4,9.8,9.8  c1.7,1.8,1.7,4,0.8,6.2c-0.4,0.9-1,1.7-1.6,2.4c-1.7,1.8-3.5,3.5-5.3,5.3c-1.4,1.5-3.1,2.3-5.1,2.5c-0.1,0-0.2,0.1-0.3,0.1  c-1,0-1.9,0-2.9,0c-1-0.2-2.1-0.4-3.1-0.6c-4.8-1.2-9.1-3.4-13.2-6.1c-4.9-3.1-9.3-6.8-13.4-10.8c-5.9-5.8-11-12.2-14.7-19.6  c-1.4-2.8-2.6-5.7-3.1-8.9c-0.2-1-0.3-2-0.5-3.1C0,14.4,0,14,0,13.7z"/>
    </symbol>
    <symbol id="favourites-icon-header" width="29" height="26" viewBox="0 0 29 26" fill="none">
        <path d="M26.4564 15.4711C26.3673 15.564 17.6476 24.6439 17.6476 24.6439C16.8078 25.5184 15.6899 26 14.5 26C13.3101 26 12.1922 25.5184 11.3524 24.6439L2.5436 15.4711C-0.847866 11.9396 -0.847866 6.19332 2.5436 2.6618C4.19198 0.945312 6.38485 0 8.71835 0C10.8708 0 12.9038 0.804428 14.5 2.27639C16.0962 0.804428 18.1291 0 20.2816 0C22.6151 0 24.808 0.945312 26.4564 2.66174C29.8479 6.19332 29.8479 11.9396 26.4564 15.4711ZM25.1883 3.93193C23.8767 2.56614 22.1342 1.81395 20.2817 1.81395C18.4291 1.81395 16.6865 2.56608 15.375 3.93187C15.3086 4.00104 15.249 4.08502 15.1656 4.16024C14.7196 4.56258 14.1966 4.54238 13.8345 4.16024C13.7571 4.07849 13.6915 4.00104 13.6251 3.93187C12.3135 2.56614 10.5709 1.81395 8.71835 1.81395C6.86584 1.81395 5.12329 2.56608 3.81167 3.93187C1.09277 6.76308 1.09277 11.3698 3.81167 14.201C3.89257 14.2852 12.6205 23.3738 12.6205 23.3738C13.1235 23.8976 13.791 24.186 14.5 24.186C15.209 24.186 15.8765 23.8976 16.3795 23.3738L25.1883 14.2011C27.9072 11.3699 27.9072 6.76314 25.1883 3.93193Z" fill="white"/>
    </symbol>
    <symbol id="favourites-icon" viewBox="0 0 544.582 544.582" stroke-width="25">
	    <path d="M448.069,57.839c-72.675-23.562-150.781,15.759-175.721,87.898C247.41,73.522,169.303,34.277,96.628,57.839   C23.111,81.784-16.975,160.885,6.894,234.708c22.95,70.38,235.773,258.876,263.006,258.876   c27.234,0,244.801-188.267,267.751-258.876C561.595,160.732,521.509,81.631,448.069,57.839z"/>
    </symbol>
    <symbol viewBox="0 0 22 26" id="cabinet-icon" fill="none">
        <path d="M14.9197 12.0557C16.5833 10.8424 17.6667 8.8788 17.6667 6.66666C17.6667 2.99066 14.676 0 11 0C7.32399 0 4.33332 2.99066 4.33332 6.66666C4.33332 8.8788 5.41664 10.8424 7.08034 12.0557C2.94471 13.6383 0 17.6481 0 22.3333C0 24.3551 1.64486 26 3.66667 26H18.3333C20.3551 26 22 24.3551 22 22.3333C22 17.6481 19.0553 13.6383 14.9197 12.0557ZM6.33335 6.66666C6.33335 4.09348 8.42681 2.00002 11 2.00002C13.5732 2.00002 15.6667 4.09348 15.6667 6.66666C15.6667 9.23985 13.5732 11.3334 11 11.3334C8.42681 11.3334 6.33335 9.23985 6.33335 6.66666ZM18.3333 24H3.66667C2.74768 24 2.00002 23.2523 2.00002 22.3333C2.00002 17.3706 6.03734 13.3333 11.0001 13.3333C15.9628 13.3333 20.0001 17.3706 20.0001 22.3333C20 23.2523 19.2524 24 18.3333 24Z" fill="white"/>
    </symbol>
    <symbol viewBox="0 0 26 26" id="basket-icon" fill="none">
        <path d="M25.7725 5.91013C25.5796 5.67288 25.2901 5.53516 24.9844 5.53516H6.58816L6.5128 4.84291L6.51011 4.82067C6.14956 2.07248 3.78742 0 1.01563 0C0.454695 0 0 0.454695 0 1.01563C0 1.57656 0.454695 2.03125 1.01563 2.03125C2.76788 2.03125 4.26172 3.33882 4.49475 5.07447L5.70197 16.1651C4.64623 16.6443 3.91016 17.7085 3.91016 18.9414C3.91016 18.9499 3.91026 18.9584 3.91046 18.9668C3.91026 18.9752 3.91016 18.9837 3.91016 18.9922C3.91016 20.6722 5.27699 22.0391 6.95703 22.0391H7.37029C7.267 22.3419 7.21094 22.6665 7.21094 23.0039C7.21094 24.6559 8.55497 26 10.207 26C11.8591 26 13.2031 24.6559 13.2031 23.0039C13.2031 22.6665 13.1471 22.3419 13.0438 22.0391H17.425C17.3217 22.3419 17.2657 22.6665 17.2657 23.0039C17.2657 24.6559 18.6097 26 20.2618 26C21.9138 26 23.2579 24.6559 23.2579 23.0039C23.2579 21.3519 21.9138 20.0078 20.2618 20.0078H6.95703C6.39702 20.0078 5.94141 19.5522 5.94141 18.9922C5.94141 18.9837 5.94131 18.9752 5.9411 18.9668C5.94131 18.9584 5.94141 18.9499 5.94141 18.9414C5.94141 18.3814 6.39702 17.9258 6.95703 17.9258H19.9231C21.7259 17.9258 23.3805 16.8103 24.1382 15.084C24.3636 14.5704 24.13 13.9712 23.6164 13.7458C23.1028 13.5204 22.5037 13.754 22.2782 14.2676C21.8511 15.2407 20.9047 15.8945 19.9231 15.8945H7.71575L6.80926 7.56641H23.7351L23.2381 9.94886C23.1236 10.498 23.4759 11.0359 24.025 11.1504C24.0949 11.1651 24.1646 11.1721 24.2334 11.1721C24.7042 11.1721 25.1266 10.8428 25.2266 10.3636L25.9786 6.75817C26.041 6.45887 25.9653 6.14738 25.7725 5.91013ZM20.2617 22.0391C20.7938 22.0391 21.2266 22.4719 21.2266 23.0039C21.2266 23.5359 20.7938 23.9688 20.2617 23.9688C19.7297 23.9688 19.2969 23.5359 19.2969 23.0039C19.2969 22.4719 19.7297 22.0391 20.2617 22.0391ZM10.207 22.0391C10.7391 22.0391 11.1719 22.4719 11.1719 23.0039C11.1719 23.5359 10.7391 23.9688 10.207 23.9688C9.675 23.9688 9.24219 23.5359 9.24219 23.0039C9.24219 22.4719 9.675 22.0391 10.207 22.0391Z" fill="white"/>
    </symbol>
    <symbol viewBox="0 0 36 36" id="open-box" fill="none">
        <path d="M35.8604 15.6049L32.1426 9.1161C32.0156 8.89448 31.8183 8.73459 31.5929 8.65127C31.592 8.65091 31.5914 8.65042 31.5905 8.65014L18.4777 3.84456C18.2453 3.75934 17.9903 3.75871 17.7574 3.84252L4.4151 8.6481C4.41475 8.64824 4.41454 8.64852 4.41419 8.64866C4.18574 8.73121 3.9857 8.89223 3.85738 9.11603L0.139539 15.6049C-0.0131797 15.8715 -0.0420782 16.1914 0.0604375 16.4811C0.162953 16.7707 0.386617 17.0012 0.673 17.1124L3.71781 18.2943V26.3598C3.71781 26.8045 3.99674 27.2014 4.4151 27.3521L17.6559 32.1211C17.791 32.1839 17.941 32.22 18.0998 32.22C18.1021 32.22 18.1044 32.2197 18.1067 32.2197C18.1094 32.2197 18.1121 32.22 18.1148 32.22C18.2357 32.22 18.3567 32.1992 18.4722 32.1576L31.8145 27.3521C32.2328 27.2014 32.5118 26.8045 32.5118 26.3598V18.2052L35.3269 17.1124C35.6133 17.0012 35.8371 16.7707 35.9395 16.4811C36.0421 16.1914 36.0132 15.8715 35.8604 15.6049ZM18.1117 5.95696L28.1676 9.64225L18.097 13.3469L7.87652 9.64344L18.1117 5.95696ZM5.24683 10.9341L16.5539 15.0314L13.7179 19.9135L2.57931 15.5897L5.24683 10.9341ZM5.82719 19.1132L13.7952 22.2062C13.9201 22.2547 14.0491 22.2779 14.1766 22.2779C14.5431 22.2779 14.8953 22.086 15.0889 21.7528L17.0451 18.3852V29.6591L5.82719 25.6187V19.1132ZM30.4024 25.6187L19.1544 29.6699V18.5672L20.8994 21.7323C21.1545 22.1949 21.7125 22.3974 22.2047 22.2062L30.4024 19.024V25.6187ZM22.3013 19.906L19.6162 15.0357L30.7554 10.9379L33.4206 15.5897L22.3013 19.906Z" fill="#BC0021"/>
    </symbol>
    <!-- <symbol viewBox="0 0 7 10" id="slider-arrow" fill="none">
        <path d="M3.9131 0.430619L1.05754 3.79274C0.864262 4.02022 0.767774 4.30174 0.767774 4.58327C0.767774 4.86449 0.864262 5.14571 1.05754 5.3738L3.9131 8.73592C4.34974 9.25011 5.12042 9.31301 5.63462 8.87637C6.14882 8.43943 6.21172 7.66875 5.77477 7.15455L3.59127 4.58327L5.77477 2.01229C6.21141 1.49748 6.14851 0.727106 5.63462 0.290468C5.12042 -0.146171 4.34974 -0.0832711 3.9131 0.430619Z" fill="#7B7B7B"/>
    </symbol> -->
    <!-- <symbol viewBox="0 0 7 10" id="slider-arrow-next" fill="none">
        <path d="M3.0869 0.430619L5.94246 3.79274C6.13574 4.02022 6.23223 4.30174 6.23223 4.58327C6.23223 4.86449 6.13574 5.14571 5.94246 5.3738L3.0869 8.73592C2.65026 9.25011 1.87958 9.31301 1.36538 8.87637C0.851185 8.43943 0.788284 7.66875 1.22523 7.15455L3.40873 4.58327L1.22523 2.01229C0.788589 1.49748 0.85149 0.727106 1.36538 0.290468C1.87958 -0.146171 2.65026 -0.0832711 3.0869 0.430619Z" fill="white"/>
    </symbol> -->
    <symbol id="slider-arrow" viewBox="0 0 24 24">
        <path d="M8.4697 4.21967C8.1768 4.51256 8.1768 4.98744 8.4697 5.28033L15.1893 12L8.4697 18.7197C8.1768 19.0126 8.1768 19.4874 8.4697 19.7803C8.7626 20.0732 9.2374 20.0732 9.5303 19.7803L16.7803 12.5303C17.0732 12.2374 17.0732 11.7626 16.7803 11.4697L9.5303 4.21967C9.2374 3.92678 8.7626 3.92678 8.4697 4.21967Z"/>
    </symbol>
    <symbol viewBox="0 0 13 12" id="rating-star">
		<path d="M6.5 0.86913L8.41395 3.59041L8.51232 3.73027L8.67574 3.78061L11.8553 4.75997L9.85863 7.42116L9.75601 7.55794L9.75863 7.72892L9.80974 11.0555L6.6618 9.9789L6.5 9.92357L6.3382 9.9789L3.19026 11.0555L3.24137 7.72892L3.24399 7.55794L3.14137 7.42116L1.14472 4.75997L4.32426 3.78061L4.48768 3.73027L4.58605 3.59041L6.5 0.86913Z"/>
	</symbol>
    <symbol viewBox="0 0 20 20" fill="none" id="like">
        <path d="M18.958 7.25241C18.4275 6.78162 17.7571 6.52208 17.0751 6.52208H16.4396H14.1544H13.0701V3.59472C13.0701 2.19442 12.6678 1.17437 11.8692 0.564758C10.61 -0.388897 8.90188 0.148288 8.8261 0.172431C8.53461 0.269004 8.33641 0.546651 8.33641 0.860512V4.39145C8.33641 5.46582 7.84089 6.37722 6.85567 7.10755C6.10948 7.66285 5.34579 7.91635 5.24669 7.94653L5.17673 7.96464C4.9144 7.65681 4.52964 7.46367 4.09825 7.46367H1.43992C0.647092 7.46367 0 8.13364 0 8.9545V17.984C0 18.8049 0.647092 19.4749 1.43992 19.4749H4.10991C4.45969 19.4749 4.78615 19.3421 5.03099 19.1248C5.56732 19.668 6.29603 20 7.08303 20H9.73552H10.0095H15.4369C16.2764 20 17.0168 19.7887 17.5822 19.3964C18.3051 18.8894 18.754 18.0867 18.8823 17.0606L19.9607 10.1194C20.1298 9.04504 19.745 7.94653 18.958 7.25241ZM4.15071 17.984C4.15071 18.0082 4.13322 18.0263 4.10991 18.0263H1.43992C1.41661 18.0263 1.39912 18.0082 1.39912 17.984V8.9545C1.39912 8.93036 1.41661 8.91226 1.43992 8.91226H4.10991C4.13322 8.91226 4.15071 8.93036 4.15071 8.9545V17.984ZM18.5791 9.89609L17.5006 16.8493C17.5006 16.8554 17.5006 16.8674 17.4948 16.8795C17.4482 17.296 17.2966 18.5574 15.4369 18.5574H10.0095H9.73552H7.08303C6.33683 18.5574 5.68391 17.978 5.56732 17.2115C5.56149 17.1813 5.55566 17.1511 5.54983 17.127V9.36494L5.59064 9.35287C5.6023 9.35287 5.60813 9.34683 5.61979 9.34683C5.6606 9.33476 6.65164 9.04504 7.63685 8.31471C9.00682 7.30673 9.73552 5.94868 9.73552 4.39145V1.45805C10.1203 1.4158 10.6508 1.43391 11.0414 1.72967C11.4611 2.04956 11.671 2.67728 11.671 3.58869V7.24034C11.671 7.6387 11.9858 7.96464 12.3705 7.96464H14.1544H16.4396H17.0751C17.4248 7.96464 17.7688 8.10346 18.0486 8.34489C18.4683 8.71911 18.6666 9.31062 18.5791 9.89609Z" fill="#7B7B7B"/>
    </symbol>
    <symbol viewBox="0 0 20 20" fill="none" id="dislike">
        <path d="M1.04196 12.7476C1.57246 13.2184 2.24287 13.4779 2.92494 13.4779H3.56037H5.8456H6.92991V16.4053C6.92991 17.8056 7.33216 18.8256 8.13082 19.4352C9.39003 20.3889 11.0981 19.8517 11.1739 19.8276C11.4654 19.731 11.6636 19.4533 11.6636 19.1395V15.6086C11.6636 14.5342 12.1591 13.6228 13.1443 12.8924C13.8905 12.3372 14.6542 12.0836 14.7533 12.0535L14.8233 12.0354C15.0856 12.3432 15.4704 12.5363 15.9018 12.5363H18.5601C19.3529 12.5363 20 11.8664 20 11.0455V2.01595C20 1.19509 19.3529 0.525112 18.5601 0.525112H15.8901C15.5403 0.525112 15.2139 0.657902 14.969 0.875191C14.4327 0.331968 13.704 0 12.917 0H10.2645H9.99048H4.56308C3.7236 0 2.98324 0.211252 2.41776 0.603579C1.69489 1.11059 1.246 1.91335 1.11775 2.93943L0.0392628 9.88059C-0.129797 10.955 0.254961 12.0535 1.04196 12.7476ZM15.8493 2.01595C15.8493 1.99181 15.8668 1.9737 15.8901 1.9737H18.5601C18.5834 1.9737 18.6009 1.99181 18.6009 2.01595V11.0455C18.6009 11.0696 18.5834 11.0877 18.5601 11.0877H15.8901C15.8668 11.0877 15.8493 11.0696 15.8493 11.0455V2.01595ZM1.42089 10.1039L2.49938 3.15068C2.49938 3.14465 2.49938 3.13257 2.50521 3.1205C2.55185 2.70403 2.70341 1.44255 4.56308 1.44255H9.99048H10.2645H12.917C13.6632 1.44255 14.3161 2.02199 14.4327 2.78853C14.4385 2.81871 14.4443 2.84889 14.4502 2.87304V10.6351L14.4094 10.6471C14.3977 10.6471 14.3919 10.6532 14.3802 10.6532C14.3394 10.6652 13.3484 10.955 12.3632 11.6853C10.9932 12.6933 10.2645 14.0513 10.2645 15.6086V18.5419C9.87972 18.5842 9.34922 18.5661 8.95863 18.2703C8.5389 17.9504 8.32903 17.3227 8.32903 16.4113V12.7597C8.32903 12.3613 8.01423 12.0354 7.62947 12.0354H5.8456H3.56037H2.92494C2.57516 12.0354 2.23121 11.8965 1.95139 11.6551C1.53166 11.2809 1.33345 10.6894 1.42089 10.1039Z" fill="#7B7B7B"/>
    </symbol>
    <symbol viewBox="0 0 16 16" fill="none" id="delete">
        <path d="M10.2067 5.79688C9.99977 5.79688 9.83203 5.96461 9.83203 6.17158V13.2535C9.83203 13.4604 9.99977 13.6282 10.2067 13.6282C10.4137 13.6282 10.5814 13.4604 10.5814 13.2535V6.17158C10.5814 5.96461 10.4137 5.79688 10.2067 5.79688Z" fill="#98001B"/>
        <path d="M5.78584 5.79688C5.57887 5.79688 5.41113 5.96461 5.41113 6.17158V13.2535C5.41113 13.4604 5.57887 13.6282 5.78584 13.6282C5.99281 13.6282 6.16055 13.4604 6.16055 13.2535V6.17158C6.16055 5.96461 5.99281 5.79688 5.78584 5.79688Z" fill="#98001B"/>
        <path d="M2.56325 4.76335V13.9953C2.56325 14.541 2.76334 15.0534 3.11287 15.4211C3.46079 15.7898 3.94498 15.9991 4.45171 16H11.5413C12.0481 15.9991 12.5323 15.7898 12.8801 15.4211C13.2296 15.0534 13.4297 14.541 13.4297 13.9953V4.76335C14.1245 4.57893 14.5748 3.90768 14.4818 3.19471C14.3887 2.48189 13.7815 1.94867 13.0625 1.94852H11.144V1.48014C11.1462 1.08626 10.9905 0.708039 10.7116 0.42979C10.4328 0.151688 10.054 -0.0031709 9.66012 4.92333e-05H6.33285C5.93897 -0.0031709 5.56017 0.151688 5.28133 0.42979C5.0025 0.708039 4.84676 1.08626 4.84896 1.48014V1.94852H2.93049C2.21152 1.94867 1.60424 2.48189 1.51115 3.19471C1.4182 3.90768 1.86843 4.57893 2.56325 4.76335ZM11.5413 15.2506H4.45171C3.81105 15.2506 3.31266 14.7002 3.31266 13.9953V4.79629H12.6803V13.9953C12.6803 14.7002 12.1819 15.2506 11.5413 15.2506ZM5.59837 1.48014C5.59588 1.28503 5.67258 1.09724 5.81104 0.959502C5.94936 0.821768 6.13759 0.746095 6.33285 0.749461H9.66012C9.85538 0.746095 10.0436 0.821768 10.1819 0.959502C10.3204 1.09709 10.3971 1.28503 10.3946 1.48014V1.94852H5.59837V1.48014ZM2.93049 2.69793H13.0625C13.435 2.69793 13.737 2.99989 13.737 3.3724C13.737 3.74492 13.435 4.04688 13.0625 4.04688H2.93049C2.55798 4.04688 2.25602 3.74492 2.25602 3.3724C2.25602 2.99989 2.55798 2.69793 2.93049 2.69793Z" fill="#98001B"/>
        <path d="M7.99628 5.79688C7.78932 5.79688 7.62158 5.96461 7.62158 6.17158V13.2535C7.62158 13.4604 7.78932 13.6282 7.99628 13.6282C8.20324 13.6282 8.37098 13.4604 8.37098 13.2535V6.17158C8.37098 5.96461 8.20324 5.79688 7.99628 5.79688Z" fill="#98001B"/>
    </symbol>
    <symbol viewBox="0 0 20 20" fill="none" id="modal-close">
        <path d="M1.03283 20C0.769377 20 0.505928 19.8998 0.305767 19.6982C-0.0960628 19.2963 -0.0960628 18.6449 0.305767 18.2431L18.2474 0.301372C18.6493 -0.100457 19.3007 -0.100457 19.7026 0.301372C20.1044 0.703201 20.1044 1.35467 19.7026 1.75675L1.76114 19.6982C1.55947 19.8986 1.29602 20 1.03283 20Z" fill="#BC0021"/>
        <path d="M18.9758 20C18.7123 20 18.4491 19.8998 18.2487 19.6982L0.305767 1.75675C-0.0960628 1.35467 -0.0960628 0.703201 0.305767 0.301372C0.707596 -0.100457 1.35906 -0.100457 1.76114 0.301372L19.7026 18.2431C20.1044 18.6449 20.1044 19.2963 19.7026 19.6982C19.5009 19.8986 19.2377 20 18.9758 20Z" fill="#BC0021"/>
    </symbol>
    <symbol width="16" height="16" viewBox="0 0 16 16" fill="none" id="filter-icon">
        <path d="M15.4288 0H0.571949C0.256351 0 0.000518799 0.255833 0.000518799 0.57143V3.42851C0.00055228 3.59043 0.0692899 3.74475 0.189656 3.85309L5.71472 8.82557V15.4283C5.71458 15.7439 5.97028 15.9998 6.28588 16C6.37464 16 6.46219 15.9794 6.54158 15.9397L9.97009 14.2255C10.1638 14.1287 10.2862 13.9306 10.2861 13.714V8.82557L15.8111 3.85423C15.9318 3.74565 16.0006 3.59086 16.0003 3.42851V0.57143C16.0003 0.255833 15.7444 0 15.4288 0ZM14.8574 3.17422L9.33237 8.14556C9.2117 8.25414 9.14296 8.40893 9.14323 8.57128V13.3609L6.85754 14.5037V8.57128C6.85751 8.40936 6.78877 8.25505 6.66841 8.14673L1.14334 3.17422V1.14283H14.8574V3.17422Z" fill="white"/>
    </symbol>
</svg>