<svg xmlns="http://www.w3.org/2000/svg">
    <symbol viewBox="0 0 20 18" id="catalog-icon" fill="none">
        <path d="M2.5 5.25H17.5C18.8806 5.25 20 4.13062 20 2.75C20 1.36938 18.8806 0.25 17.5 0.25H2.5C1.11938 0.25 0 1.36938 0 2.75C0 4.13062 1.11938 5.25 2.5 5.25ZM2.5 1.5H17.5C18.1906 1.5 18.75 2.05938 18.75 2.75C18.75 3.44062 18.1906 4 17.5 4H2.5C1.80938 4 1.25 3.44062 1.25 2.75C1.25 2.05938 1.80938 1.5 2.5 1.5ZM17.5 12.75H2.5C1.11938 12.75 0 13.8694 0 15.25C0 16.6306 1.11938 17.75 2.5 17.75H17.5C18.8806 17.75 20 16.6306 20 15.25C20 13.8694 18.8806 12.75 17.5 12.75ZM17.5 16.5H2.5C1.80938 16.5 1.25 15.9406 1.25 15.25C1.25 14.5594 1.80938 14 2.5 14H17.5C18.1906 14 18.75 14.5594 18.75 15.25C18.75 15.9406 18.1906 16.5 17.5 16.5ZM17.5 6.5H2.5C1.11938 6.5 0 7.61938 0 9C0 10.3806 1.11938 11.5 2.5 11.5H17.5C18.8806 11.5 20 10.3806 20 9C20 7.61938 18.8806 6.5 17.5 6.5ZM17.5 10.25H2.5C1.80938 10.25 1.25 9.69062 1.25 9C1.25 8.31 1.80938 7.75 2.5 7.75H17.5C18.1906 7.75 18.75 8.30938 18.75 9C18.75 9.69062 18.1906 10.25 17.5 10.25Z" fill="white"/>
    </symbol>
    <symbol viewBox="0 0 20 20" id="catalog-search" fill="none">
        <path d="M8.24515 16.4718C3.70387 16.4718 0.00927734 12.7772 0.00927734 8.23588C0.00927734 3.69459 3.70387 0 8.24515 0C12.7864 0 16.481 3.69459 16.481 8.23588C16.481 12.7772 12.7864 16.4718 8.24515 16.4718ZM8.24515 1.5613C4.56477 1.5613 1.57058 4.5555 1.57058 8.23588C1.57058 11.9163 4.56477 14.9105 8.24515 14.9105C11.9255 14.9105 14.9197 11.9163 14.9197 8.23588C14.9197 4.5555 11.9255 1.5613 8.24515 1.5613Z" fill="white"/>
        <path d="M19.2116 20.0001C19.0118 20.0001 18.812 19.9239 18.6595 19.7714L15.1661 16.278C14.8613 15.9731 14.8613 15.4788 15.1661 15.174C15.471 14.8691 15.9653 14.8691 16.2702 15.174L19.7636 18.6674C20.0684 18.9723 20.0684 19.4666 19.7636 19.7714C19.6112 19.9238 19.4114 20.0001 19.2116 20.0001Z" fill="white"/>
    </symbol>
    <symbol viewBox="0 0 20 20" id="phone-icon" fill="none">
        <path d="M19.4557 14.678L16.6646 11.8869C15.6678 10.8901 13.9732 11.2889 13.5745 12.5847C13.2754 13.4819 12.2786 13.9803 11.3815 13.7809C9.3879 13.2825 6.69652 10.6908 6.19812 8.59746C5.89907 7.7003 6.49716 6.70349 7.39428 6.40448C8.69013 6.00576 9.08886 4.31119 8.09205 3.31438L5.30099 0.523324C4.50354 -0.174441 3.30738 -0.174441 2.60961 0.523324L0.715678 2.41726C-1.17826 4.41087 0.915039 9.69395 5.60003 14.3789C10.285 19.0639 15.5681 21.2569 17.5617 19.2633L19.4557 17.3694C20.1535 16.5719 20.1535 15.3757 19.4557 14.678Z" fill="white"/>
    </symbol>
    <symbol viewBox="0 0 47 40" id="favourites-icon-big" fill="none">
        <path d="M42.8776 23.8018C42.7332 23.9447 28.6012 37.9138 28.6012 37.9138C27.2403 39.2591 25.4285 40 23.5 40C21.5715 40 19.7598 39.2591 18.3988 37.9138L4.12238 23.8018C-1.37413 18.3687 -1.37413 9.52819 4.12238 4.09507C6.7939 1.45433 10.3479 0 14.1297 0C17.6182 0 20.9131 1.23758 23.5 3.50214C26.087 1.23758 29.3817 0 32.8702 0C36.6521 0 40.2061 1.45433 42.8775 4.09498C48.3741 9.52819 48.3741 18.3687 42.8776 23.8018ZM40.8225 6.04912C38.6967 3.94791 35.8726 2.7907 32.8703 2.7907C29.8679 2.7907 27.0437 3.94781 24.9181 6.04902C24.8104 6.15544 24.7139 6.28465 24.5787 6.40037C23.8559 7.01935 23.0083 6.98828 22.4214 6.40037C22.2959 6.27461 22.1897 6.15544 22.082 6.04902C19.9563 3.94791 17.1322 2.7907 14.1297 2.7907C11.1274 2.7907 8.30327 3.94781 6.17753 6.04902C1.77104 10.4047 1.77104 17.492 6.17753 21.8477C6.30865 21.9773 20.4539 35.9597 20.4539 35.9597C21.2691 36.7655 22.3509 37.2093 23.5 37.2093C24.6491 37.2093 25.7309 36.7655 26.5461 35.9597L40.8225 21.8478C45.2289 17.4921 45.2289 10.4048 40.8225 6.04912Z" fill="#BC0021"/>
    </symbol>
    <symbol width="21" height="21" id="favourites-icon" viewBox="0 0 24 24" fill="none" stroke-width="2" stroke-linecap="round" stroke-linejoin="round">
        <path d="M20.84 4.61a5.5 5.5 0 0 0-7.78 0L12 5.67l-1.06-1.06a5.5 5.5 0 0 0-7.78 7.78l1.06 1.06L12 21.23l7.78-7.78 1.06-1.06a5.5 5.5 0 0 0 0-7.78z"></path>
    </symbol>
    <symbol viewBox="0 0 22 26" id="cabinet-icon" fill="none">
        <path d="M14.9197 12.0557C16.5833 10.8424 17.6667 8.8788 17.6667 6.66666C17.6667 2.99066 14.676 0 11 0C7.32399 0 4.33332 2.99066 4.33332 6.66666C4.33332 8.8788 5.41664 10.8424 7.08034 12.0557C2.94471 13.6383 0 17.6481 0 22.3333C0 24.3551 1.64486 26 3.66667 26H18.3333C20.3551 26 22 24.3551 22 22.3333C22 17.6481 19.0553 13.6383 14.9197 12.0557ZM6.33335 6.66666C6.33335 4.09348 8.42681 2.00002 11 2.00002C13.5732 2.00002 15.6667 4.09348 15.6667 6.66666C15.6667 9.23985 13.5732 11.3334 11 11.3334C8.42681 11.3334 6.33335 9.23985 6.33335 6.66666ZM18.3333 24H3.66667C2.74768 24 2.00002 23.2523 2.00002 22.3333C2.00002 17.3706 6.03734 13.3333 11.0001 13.3333C15.9628 13.3333 20.0001 17.3706 20.0001 22.3333C20 23.2523 19.2524 24 18.3333 24Z" fill="white"/>
    </symbol>
    <symbol viewBox="0 0 26 26" id="basket-icon" fill="none">
        <path d="M25.7725 5.91013C25.5796 5.67288 25.2901 5.53516 24.9844 5.53516H6.58816L6.5128 4.84291L6.51011 4.82067C6.14956 2.07248 3.78742 0 1.01563 0C0.454695 0 0 0.454695 0 1.01563C0 1.57656 0.454695 2.03125 1.01563 2.03125C2.76788 2.03125 4.26172 3.33882 4.49475 5.07447L5.70197 16.1651C4.64623 16.6443 3.91016 17.7085 3.91016 18.9414C3.91016 18.9499 3.91026 18.9584 3.91046 18.9668C3.91026 18.9752 3.91016 18.9837 3.91016 18.9922C3.91016 20.6722 5.27699 22.0391 6.95703 22.0391H7.37029C7.267 22.3419 7.21094 22.6665 7.21094 23.0039C7.21094 24.6559 8.55497 26 10.207 26C11.8591 26 13.2031 24.6559 13.2031 23.0039C13.2031 22.6665 13.1471 22.3419 13.0438 22.0391H17.425C17.3217 22.3419 17.2657 22.6665 17.2657 23.0039C17.2657 24.6559 18.6097 26 20.2618 26C21.9138 26 23.2579 24.6559 23.2579 23.0039C23.2579 21.3519 21.9138 20.0078 20.2618 20.0078H6.95703C6.39702 20.0078 5.94141 19.5522 5.94141 18.9922C5.94141 18.9837 5.94131 18.9752 5.9411 18.9668C5.94131 18.9584 5.94141 18.9499 5.94141 18.9414C5.94141 18.3814 6.39702 17.9258 6.95703 17.9258H19.9231C21.7259 17.9258 23.3805 16.8103 24.1382 15.084C24.3636 14.5704 24.13 13.9712 23.6164 13.7458C23.1028 13.5204 22.5037 13.754 22.2782 14.2676C21.8511 15.2407 20.9047 15.8945 19.9231 15.8945H7.71575L6.80926 7.56641H23.7351L23.2381 9.94886C23.1236 10.498 23.4759 11.0359 24.025 11.1504C24.0949 11.1651 24.1646 11.1721 24.2334 11.1721C24.7042 11.1721 25.1266 10.8428 25.2266 10.3636L25.9786 6.75817C26.041 6.45887 25.9653 6.14738 25.7725 5.91013ZM20.2617 22.0391C20.7938 22.0391 21.2266 22.4719 21.2266 23.0039C21.2266 23.5359 20.7938 23.9688 20.2617 23.9688C19.7297 23.9688 19.2969 23.5359 19.2969 23.0039C19.2969 22.4719 19.7297 22.0391 20.2617 22.0391ZM10.207 22.0391C10.7391 22.0391 11.1719 22.4719 11.1719 23.0039C11.1719 23.5359 10.7391 23.9688 10.207 23.9688C9.675 23.9688 9.24219 23.5359 9.24219 23.0039C9.24219 22.4719 9.675 22.0391 10.207 22.0391Z" fill="white"/>
    </symbol>
    <symbol viewBox="0 0 36 36" id="open-box" fill="none">
        <path d="M35.8604 15.6049L32.1426 9.1161C32.0156 8.89448 31.8183 8.73459 31.5929 8.65127C31.592 8.65091 31.5914 8.65042 31.5905 8.65014L18.4777 3.84456C18.2453 3.75934 17.9903 3.75871 17.7574 3.84252L4.4151 8.6481C4.41475 8.64824 4.41454 8.64852 4.41419 8.64866C4.18574 8.73121 3.9857 8.89223 3.85738 9.11603L0.139539 15.6049C-0.0131797 15.8715 -0.0420782 16.1914 0.0604375 16.4811C0.162953 16.7707 0.386617 17.0012 0.673 17.1124L3.71781 18.2943V26.3598C3.71781 26.8045 3.99674 27.2014 4.4151 27.3521L17.6559 32.1211C17.791 32.1839 17.941 32.22 18.0998 32.22C18.1021 32.22 18.1044 32.2197 18.1067 32.2197C18.1094 32.2197 18.1121 32.22 18.1148 32.22C18.2357 32.22 18.3567 32.1992 18.4722 32.1576L31.8145 27.3521C32.2328 27.2014 32.5118 26.8045 32.5118 26.3598V18.2052L35.3269 17.1124C35.6133 17.0012 35.8371 16.7707 35.9395 16.4811C36.0421 16.1914 36.0132 15.8715 35.8604 15.6049ZM18.1117 5.95696L28.1676 9.64225L18.097 13.3469L7.87652 9.64344L18.1117 5.95696ZM5.24683 10.9341L16.5539 15.0314L13.7179 19.9135L2.57931 15.5897L5.24683 10.9341ZM5.82719 19.1132L13.7952 22.2062C13.9201 22.2547 14.0491 22.2779 14.1766 22.2779C14.5431 22.2779 14.8953 22.086 15.0889 21.7528L17.0451 18.3852V29.6591L5.82719 25.6187V19.1132ZM30.4024 25.6187L19.1544 29.6699V18.5672L20.8994 21.7323C21.1545 22.1949 21.7125 22.3974 22.2047 22.2062L30.4024 19.024V25.6187ZM22.3013 19.906L19.6162 15.0357L30.7554 10.9379L33.4206 15.5897L22.3013 19.906Z" fill="#BC0021"/>
    </symbol>
    <symbol viewBox="0 0 7 10" id="slider-arrow-prev" fill="none">
        <path d="M3.9131 0.430619L1.05754 3.79274C0.864262 4.02022 0.767774 4.30174 0.767774 4.58327C0.767774 4.86449 0.864262 5.14571 1.05754 5.3738L3.9131 8.73592C4.34974 9.25011 5.12042 9.31301 5.63462 8.87637C6.14882 8.43943 6.21172 7.66875 5.77477 7.15455L3.59127 4.58327L5.77477 2.01229C6.21141 1.49748 6.14851 0.727106 5.63462 0.290468C5.12042 -0.146171 4.34974 -0.0832711 3.9131 0.430619Z" fill="#7B7B7B"/>
    </symbol>
    <symbol viewBox="0 0 7 10" id="slider-arrow-next" fill="none">
        <path d="M3.0869 0.430619L5.94246 3.79274C6.13574 4.02022 6.23223 4.30174 6.23223 4.58327C6.23223 4.86449 6.13574 5.14571 5.94246 5.3738L3.0869 8.73592C2.65026 9.25011 1.87958 9.31301 1.36538 8.87637C0.851185 8.43943 0.788284 7.66875 1.22523 7.15455L3.40873 4.58327L1.22523 2.01229C0.788589 1.49748 0.85149 0.727106 1.36538 0.290468C1.87958 -0.146171 2.65026 -0.0832711 3.0869 0.430619Z" fill="white"/>
    </symbol>
</svg>